HIERARCHY
ROOT Hips
{
	OFFSET 0.000000 0.000000 0.000000
	CHANNELS 6 Xposition Yposition Zposition Zrotation Yrotation Xrotation 
	JOINT LHipJoint
	{
		OFFSET 0.000000 0.000000 0.000000
		CHANNELS 3 Zrotation Yrotation Xrotation
		JOINT LeftUpLeg
		{
			OFFSET 1.363060 -1.794630 0.839290
			CHANNELS 3 Zrotation Yrotation Xrotation
			JOINT LeftLeg
			{
				OFFSET 2.448110 -6.726130 0.000000
				CHANNELS 3 Zrotation Yrotation Xrotation
				JOINT LeftFoot
				{
					OFFSET 2.562200 -7.039590 0.000000
					CHANNELS 3 Zrotation Yrotation Xrotation
					JOINT LeftToeBase
					{
						OFFSET 0.157640 -0.433110 2.322550
						CHANNELS 3 Zrotation Yrotation Xrotation
						End Site
						{
							OFFSET 0.000000 0.000000 0.000000
						}
					}
				}
			}
		}
	}
	JOINT RHipJoint
	{
		OFFSET 0.000000 0.000000 0.000000
		CHANNELS 3 Zrotation Yrotation Xrotation
		JOINT RightUpLeg
		{
			OFFSET -1.305520 -1.794630 0.839290
			CHANNELS 3 Zrotation Yrotation Xrotation
			JOINT RightLeg
			{
				OFFSET -2.542530 -6.985550 0.000000
				CHANNELS 3 Zrotation Yrotation Xrotation
				JOINT RightFoot
				{
					OFFSET -2.568260 -7.056230 0.000000
					CHANNELS 3 Zrotation Yrotation Xrotation
					JOINT RightToeBase
					{
						OFFSET -0.164730 -0.452590 2.363150
						CHANNELS 3 Zrotation Yrotation Xrotation
						End Site
						{
							OFFSET 0.000000 0.000000 0.000000
						}
					}
				}
			}
		}
	}
	JOINT LowerBack
	{
		OFFSET 0.000000 0.000000 0.000000
		CHANNELS 3 Zrotation Yrotation Xrotation
		JOINT Spine
		{
			OFFSET 0.028270 2.035590 -0.193380
			CHANNELS 3 Zrotation Yrotation Xrotation
			JOINT Spine1
			{
				OFFSET 0.056720 2.048850 -0.042750
				CHANNELS 3 Zrotation Yrotation Xrotation
				JOINT Neck
				{
					OFFSET 0.000000 0.000000 0.000000
					CHANNELS 3 Zrotation Yrotation Xrotation
					JOINT Neck1
					{
						OFFSET -0.054170 1.746240 0.172020
						CHANNELS 3 Zrotation Yrotation Xrotation
						JOINT Head
						{
							OFFSET 0.104070 1.761360 -0.123970
							CHANNELS 3 Zrotation Yrotation Xrotation
							End Site
							{
								OFFSET 0.000000 0.000000 0.000000
							}
						}
					}
				}
				JOINT LeftShoulder
				{
					OFFSET 0.000000 0.000000 0.000000
					CHANNELS 3 Zrotation Yrotation Xrotation
					JOINT LeftArm
					{
						OFFSET 3.362410 1.200890 -0.311210
						CHANNELS 3 Zrotation Yrotation Xrotation
						JOINT LeftForeArm
						{
							OFFSET 4.983000 -0.000000 -0.000000
							CHANNELS 3 Zrotation Yrotation Xrotation
							JOINT LeftHand
							{
								OFFSET 3.483560 -0.000000 -0.000000
								CHANNELS 3 Zrotation Yrotation Xrotation
								JOINT LeftFingerBase
								{
									OFFSET 0.000000 0.000000 0.000000
									CHANNELS 3 Zrotation Yrotation Xrotation
									JOINT LeftHandIndex1
									{
										OFFSET 0.715260 -0.000000 -0.000000
										CHANNELS 3 Zrotation Yrotation Xrotation
										End Site
										{
											OFFSET 0.000000 0.000000 0.000000
										}
									}
								}
								JOINT LThumb
								{
									OFFSET 0.000000 0.000000 0.000000
									CHANNELS 3 Zrotation Yrotation Xrotation
									End Site
									{
										OFFSET 0.000000 0.000000 0.000000
									}
								}
							}
						}
					}
				}
				JOINT RightShoulder
				{
					OFFSET 0.000000 0.000000 0.000000
					CHANNELS 3 Zrotation Yrotation Xrotation
					JOINT RightArm
					{
						OFFSET -3.136600 1.374050 -0.404650
						CHANNELS 3 Zrotation Yrotation Xrotation
						JOINT RightForeArm
						{
							OFFSET -5.241900 -0.000000 -0.000000
							CHANNELS 3 Zrotation Yrotation Xrotation
							JOINT RightHand
							{
								OFFSET -3.444170 -0.000000 -0.000000
								CHANNELS 3 Zrotation Yrotation Xrotation
								JOINT RightFingerBase
								{
									OFFSET 0.000000 0.000000 0.000000
									CHANNELS 3 Zrotation Yrotation Xrotation
									JOINT RightHandIndex1
									{
										OFFSET -0.622530 -0.000000 -0.000000
										CHANNELS 3 Zrotation Yrotation Xrotation
										End Site
										{
											OFFSET 0.000000 0.000000 0.000000
										}
									}
								}
								JOINT RThumb
								{
									OFFSET 0.000000 0.000000 0.000000
									CHANNELS 3 Zrotation Yrotation Xrotation
									End Site
									{
										OFFSET 0.000000 0.000000 0.000000
									}
								}
							}
						}
					}
				}
			}
		}
	}
}
MOTION
Frames: 8
Frame Time: 0.033333
1.368723 17.105078 -3.641012 3.532343 -12.039221 4.604090 -17.495457 7.803868 8.626104 -6.982651 17.597121 -22.459021 10.406265 11.580465 37.476125 -2.855356 29.625596 34.425020 0.606412 -0.010486 -42.978191 14.760752 -7.711592 -6.437688 5.423800 -19.459979 -16.920761 13.670262 2.086161 -2.790849 -0.481458 -17.854529 10.880203 -1.049923 -0.007098 -44.689495 -8.364794 20.015933 -6.121619 1.625488 -4.924479 -2.055612 -3.429813 -5.150128 3.465392 9.268278 -15.508870 -9.699347 -0.882350 -0.163327 -0.456437 -0.017236 0.034435 0.009670 3.185617 12.191600 -2.356076 -64.628113 10.336453 15.032482 -1.651590 -40.033295 -1.110268 -0.181017 0.850605 0.048322 -0.125728 0.217144 -0.038226 -0.092309 -0.025969 0.010347 0.007779 0.085739 -0.024308 4.195261 -13.393301 -14.778000 51.896388 -0.197307 -1.605571 7.016731 42.739361 3.648564 1.624606 4.344691 0.139579 0.202596 -0.198439 -0.041205 0.076660 -0.018890 -0.086040 0.087247 0.052639 0.009245 
1.273432 17.206587 -2.887594 2.799567 -7.264732 4.255189 -17.713234 9.001554 5.546738 -6.513437 19.929480 -24.493377 21.131881 15.314624 36.152136 4.329917 51.548432 53.343995 0.806178 -0.010733 -42.456753 13.186436 -3.675203 -0.271856 3.100412 -10.446992 -16.371554 7.863885 11.343283 -5.442690 0.356474 -10.029713 13.375900 -1.168296 0.073545 -41.996598 -7.056084 17.016188 -4.099339 1.415370 -5.958410 -2.449953 -3.064904 -6.307250 3.916545 9.322547 -15.176235 -10.151622 -0.904449 -0.180450 -0.473271 -0.020006 0.031481 0.013898 3.197615 11.950583 -1.867399 -64.401835 9.143682 8.867126 -2.404690 -37.450613 -0.694352 0.110073 1.107697 0.062520 -0.121094 0.189996 -0.029225 -0.091371 -0.016588 0.018945 0.011227 0.087402 -0.025980 5.189456 -15.659366 -13.775132 50.792338 3.087973 -1.941686 7.135998 44.498391 3.678726 0.428140 4.873831 0.090609 0.198971 -0.208479 -0.029296 0.082501 -0.015674 -0.080018 0.088402 0.057042 0.014232 
1.146430 17.322449 -2.206506 1.892214 -5.530976 3.010869 -16.948416 11.398225 2.383615 -7.679550 21.844977 -27.648234 26.733292 18.509854 33.812693 6.751209 58.441437 47.601548 1.080014 -0.014397 -40.939145 14.291226 -4.297078 2.663235 1.952249 -8.381130 -17.176229 6.932431 12.659504 -8.044300 -0.521815 -8.952870 15.781619 -1.066578 0.087293 -40.251361 -5.546367 13.670746 -2.897780 1.761404 -6.042668 -2.201934 -2.797260 -6.678849 3.993205 8.834786 -15.028094 -10.246071 -1.211370 -0.213947 -0.479606 -0.027172 0.028080 0.015413 2.751658 11.626314 -1.451830 -64.846330 9.838260 4.944154 -2.970545 -34.228349 -0.497345 0.249149 1.327933 0.076980 -0.114965 0.129294 -0.024314 -0.097875 -0.002607 0.022232 0.017842 0.084261 -0.031389 5.191212 -14.445250 -12.743543 49.784456 4.515880 -2.092437 6.545996 45.253954 3.153591 -0.448480 4.871492 0.046400 0.210971 -0.230535 -0.011746 0.076840 -0.006954 -0.072566 0.091627 0.056964 0.026154 
1.000030 17.433650 -1.601857 0.615589 -4.038658 1.847643 -16.443920 13.453558 0.170000 -9.404556 22.174845 -31.164712 29.093677 21.152753 31.362374 4.222772 56.265337 33.562497 1.346628 -0.025731 -38.775141 14.216937 -5.365424 4.691289 2.631242 -7.170552 -16.157372 7.280694 10.837142 -6.815834 -0.435136 -8.605392 12.348187 -1.011278 0.123150 -38.927418 -3.157654 10.407628 -0.951256 1.770060 -6.154016 -1.781959 -2.900233 -6.151453 3.567676 8.473786 -14.813989 -10.712944 -1.370966 -0.221272 -0.552588 -0.032552 0.017773 0.020351 2.460052 11.365808 -1.034622 -65.741318 10.933882 2.610687 -3.300821 -31.813570 0.018354 0.442099 1.645117 0.087805 -0.102605 0.124165 -0.016443 -0.101933 0.011512 0.027269 0.022370 0.074731 -0.037700 5.920556 -14.557197 -10.863129 48.304119 6.829544 -1.669047 5.702735 45.667817 3.004747 -1.274823 4.937008 0.004459 0.205571 -0.195379 -0.000047 0.070731 0.003818 -0.064465 0.095366 0.056142 0.038440 
0.861560 17.538115 -1.046405 1.181596 -6.866141 2.093890 -13.404709 9.666048 2.677100 -9.306706 15.433335 -30.304888 13.392480 14.877298 36.281792 -0.674447 32.604143 16.651802 1.592530 -0.053769 -36.314758 13.667710 -4.490356 5.109628 2.129300 -5.486097 -13.804858 7.521077 9.917396 -7.696417 -0.453334 -7.520709 11.407605 -0.962557 0.103869 -38.960656 -3.522398 7.020068 -1.750808 1.390111 -4.693794 -2.539400 -2.449194 -4.402027 3.684391 7.829658 -14.539738 -10.391828 -1.618894 -0.233293 -0.558042 -0.035355 0.009555 0.021203 2.059364 11.596179 -0.593129 -67.564157 13.161849 2.751628 -3.249008 -30.195455 -0.033800 0.673446 1.721076 0.097439 -0.098398 0.047154 -0.019341 -0.112894 0.021506 0.023546 0.024543 0.058019 -0.040860 5.245773 -13.870380 -7.991636 47.078262 8.174060 -1.158248 4.976749 46.674381 2.559318 -1.543816 4.852703 -0.016049 0.205365 -0.186443 0.005749 0.063424 0.015583 -0.061982 0.096245 0.051088 0.051442 
0.720368 17.636124 -0.509059 1.496618 -9.592326 2.223361 -11.215263 5.749411 5.547381 -9.075795 9.003410 -30.907648 1.499367 8.794696 34.688117 0.928677 15.019511 0.886897 1.781291 -0.057021 -34.252777 13.140109 -3.422953 5.867178 1.928253 -4.043075 -11.111583 7.514585 9.592015 -9.736264 -0.198194 -7.216426 11.392843 -1.180509 0.156401 -39.748748 -3.113256 5.418281 -3.007976 0.856456 -3.110703 -2.353074 -2.773416 -3.084123 3.362500 7.177166 -14.332582 -10.094635 -1.803534 -0.243763 -0.572294 -0.038238 -0.002508 0.023334 1.603562 12.321576 -0.141354 -68.987867 15.722247 3.996462 -4.101745 -29.680321 0.219841 0.773475 1.902983 0.106530 -0.077043 0.053790 -0.018206 -0.123939 0.030842 0.022991 0.028050 0.042871 -0.046118 4.249573 -13.212098 -5.406457 45.936825 9.812606 -0.480910 4.848685 48.298882 2.708701 -1.520710 4.815462 -0.020437 0.177798 -0.132062 0.005640 0.055373 0.026372 -0.056758 0.099207 0.047785 0.067260 
0.581971 17.723570 0.020197 1.064941 -9.889279 2.376789 -10.599109 3.995609 5.563182 -9.385875 7.532919 -29.957463 -2.188708 6.320988 29.030207 1.802256 11.343482 -2.381671 1.877366 -0.079542 -32.283319 13.416318 -3.039809 6.460514 1.367949 -3.918403 -8.785054 8.415543 9.027657 -11.401486 -0.306402 -6.864302 11.295243 -1.402583 0.180329 -41.199688 -3.640330 4.016175 -4.461254 0.234061 -2.189708 -2.676168 -2.742273 -1.811717 3.420204 7.044422 -14.087623 -9.574684 -1.787846 -0.249144 -0.504602 -0.037753 -0.009646 0.025203 1.113092 12.867954 0.836347 -69.706131 17.471250 6.874046 -4.546908 -29.933825 0.293853 0.364331 1.946045 0.109741 -0.083495 -0.017537 -0.025139 -0.137666 0.036403 0.019556 0.028863 0.034128 -0.050426 4.437989 -13.009793 -3.735413 43.830159 11.114829 0.491479 4.322432 50.846207 2.800302 -1.276039 4.895732 -0.017621 0.167249 -0.127283 0.002355 0.051602 0.033927 -0.059284 0.094264 0.036883 0.075164 
0.456591 17.792634 0.541701 0.811317 -9.448762 2.621263 -10.448216 3.462335 4.637943 -10.880484 6.524045 -29.761066 -1.771531 5.996647 25.680779 1.956624 11.909429 -0.865559 1.906699 -0.072679 -30.846433 13.451797 -3.038381 6.800977 1.179835 -3.616618 -6.786618 8.868347 8.058229 -12.509231 -0.392369 -6.426423 10.668943 -1.719112 0.213571 -42.567847 -3.592457 3.720553 -5.863570 -0.801746 -1.068955 -2.775310 -3.101175 -1.151498 3.186614 6.800423 -13.783955 -9.173282 -1.891482 -0.274494 -0.422546 -0.036644 -0.014056 0.026732 0.870746 13.621297 1.428978 -69.170493 18.668022 10.698485 -4.931262 -29.824666 0.317732 -0.101289 1.924436 0.108484 -0.052045 -0.068500 -0.031211 -0.147329 0.037059 0.022233 0.028977 0.028310 -0.054420 4.303030 -14.012536 -1.491551 42.244344 12.868462 0.953294 4.066179 54.234706 2.557944 -0.892633 5.033098 -0.002835 0.144127 -0.098464 -0.000381 0.048133 0.034179 -0.058830 0.092839 0.027394 0.084467 
